HIERARCHY
ROOT Hips
{
     OFFSET 1.88212 96.90440 -13.34250
     CHANNELS 6 Xposition Yposition Zposition Zrotation Xrotation Yrotation
     JOINT Spine
     {
          OFFSET 0.00000 11.89050 0.00000
          CHANNELS 3 Zrotation Xrotation Yrotation
          JOINT Spine1
          {
               OFFSET -0.00000 25.65740 0.12766
               CHANNELS 3 Zrotation Xrotation Yrotation
               JOINT HEad
               {
                    OFFSET 0.00000 8.73416 0.01134
                    CHANNELS 3 Zrotation Xrotation Yrotation
                    End Site
                    {
                         OFFSET -0.29000 12.77420 2.51395
                    }
               }
               JOINT LeftShoulder1
               {
                    OFFSET 8.99000 -0.36225 -0.22000
                    CHANNELS 3 Zrotation Xrotation Yrotation
                    JOINT LeftArm
                    {
                         OFFSET 10.28270 -0.00338 0.32212
                         CHANNELS 3 Zrotation Xrotation Yrotation
                         JOINT LeftForeArm
                         {
                              OFFSET 32.76690 0.09914 -1.42434
                              CHANNELS 3 Zrotation Xrotation Yrotation
                              JOINT LeftHand
                              {
                                   OFFSET 27.56430 0.08536 1.02216
                                   CHANNELS 3 Zrotation Xrotation Yrotation
                                   End Site
                                   {
                                        OFFSET 16.74430 -0.60000 1.50291
                                   }
                              }
                         }
                    }
               }
               JOINT RightShoulder
               {
                    OFFSET -8.99000 -0.36225 -0.22000
                    CHANNELS 3 Zrotation Xrotation Yrotation
                    JOINT RightArm
                    {
                         OFFSET -10.28270 -0.00338 0.32212
                         CHANNELS 3 Zrotation Xrotation Yrotation
                         JOINT RightForeArm
                         {
                              OFFSET -32.89710 0.09914 -1.42434
                              CHANNELS 3 Zrotation Xrotation Yrotation
                              JOINT RightHand
                              {
                                   OFFSET -27.49210 0.08536 1.02216
                                   CHANNELS 3 Zrotation Xrotation Yrotation
                                   End Site
                                   {
                                        OFFSET -16.63120 -0.60000 1.50291
                                   }
                              }
                         }
                    }
               }
          }
     }
     JOINT LeftUpLeg
     {
          OFFSET 8.94580 -8.66707 0.10165
          CHANNELS 3 Zrotation Xrotation Yrotation
          JOINT LeftLeg
          {
               OFFSET 0.00000 -44.42270 1.37270
               CHANNELS 3 Zrotation Xrotation Yrotation
               JOINT LeftFoot
               {
                    OFFSET -0.25355 -42.09240 -1.46059
                    CHANNELS 3 Zrotation Xrotation Yrotation
                    JOINT LeftToes
                    {
                         OFFSET -0.04000 -4.41509 8.49910
                         CHANNELS 3 Zrotation Xrotation Yrotation
                         End Site
                         {
                              OFFSET 0.08000 -0.04745 9.77979
                         }
                    }
               }
          }
     }
     JOINT RightUpLeg
     {
          OFFSET -8.94580 -8.66707 0.10165
          CHANNELS 3 Zrotation Xrotation Yrotation
          JOINT RightLeg
          {
               OFFSET 0.00000 -44.42270 1.37270
               CHANNELS 3 Zrotation Xrotation Yrotation
               JOINT RightFoot
               {
                    OFFSET 0.25355 -42.09240 -1.46059
                    CHANNELS 3 Zrotation Xrotation Yrotation
                    JOINT RightToes
                    {
                         OFFSET 0.04000 -4.41509 8.49910
                         CHANNELS 3 Zrotation Xrotation Yrotation
                         End Site
                         {
                              OFFSET -0.08000 -0.13745 9.77979
                         }
                    }
               }
          }
     }
}
MOTION
Frames: 8
Frame Time: 0.01667
45.84486 96.39716 3.58376 5.21378 46.50681 118.86642 -32.73928 35.89054 13.97796 -0.00020 0.01769 -0.00169 -26.23329 7.47810 14.74255 -0.54953 8.38183 5.30368 -53.57640 -12.38142 -26.06674 1.82387 -62.62217 -49.86876 3.28211 12.78608 -21.84027 -3.29703 8.50020 6.93821 68.04150 28.95160 79.06432 -0.26537 27.34540 99.27380 18.27714 12.97099 5.22165 73.69536 -28.94630 30.80524 -109.37156 36.53892 135.62167 -30.08901 0.02357 0.04445 -86.53786 30.80131 88.55107 -44.59047 2.43915 22.00138 32.49341 23.54490 -52.33369 55.67806 -0.00430 -0.03299 -75.72793 -36.49898 25.35123 
46.24336 96.53313 4.19941 4.26373 43.57168 122.00362 -28.79112 33.72123 11.11593 -0.00408 0.02278 -0.00241 -26.55937 10.60742 15.72856 -0.92835 9.64981 4.87260 -52.75984 -15.29834 -26.78663 -2.47486 -55.44150 -57.71121 3.14653 11.86646 -10.14050 -2.91738 9.89308 6.65701 68.33720 27.87798 78.50346 -0.20534 27.14250 99.02870 18.32202 12.86328 5.26751 68.94363 -30.34721 32.85655 -111.60614 39.87181 140.51137 -30.08537 0.04175 0.04250 -88.58588 31.61559 96.52186 -41.62821 2.89762 20.38660 33.19251 22.21754 -53.54755 51.47247 0.00495 -0.03111 -72.47661 -36.68705 24.60856 
46.65300 96.71165 4.60463 3.57546 40.99369 124.61953 -25.70257 31.24826 8.95531 -0.00671 0.02838 -0.00325 -26.75088 13.64923 16.76925 -1.70292 11.11404 4.55004 -52.48387 -21.88338 -28.12191 -9.51299 -43.33563 -66.75305 10.64204 12.43278 -9.93977 -2.69578 11.48172 6.29793 68.71170 26.63031 77.93472 -0.12037 26.96127 98.60856 18.77703 12.72850 4.11912 63.46957 -31.43155 34.94455 -114.00643 44.05831 144.44417 -30.07018 0.06522 0.03298 -92.45314 40.65462 104.73609 -39.12531 3.41287 19.06982 33.58511 20.62390 -54.35887 47.09330 0.01368 -0.02728 -68.87682 -36.75190 24.02032 
47.05198 96.94451 4.82600 3.02150 38.76708 126.85588 -24.76411 29.65694 8.26012 -0.08954 0.09046 0.01951 -25.47458 15.53245 17.02242 -1.48735 11.49190 3.96611 -53.27931 -30.61005 -30.16929 -12.94622 -31.31246 -68.81916 -1.14699 2.68250 -14.17137 -1.46163 11.96448 5.33937 69.08318 25.31627 77.35793 -2.63220 27.42223 95.29816 23.69306 12.51115 -10.05005 57.28591 -32.24906 37.00906 -117.50416 49.66809 147.32918 -30.02709 0.07185 0.00798 -94.92674 58.29805 102.42738 -37.07828 4.00170 18.01197 33.71314 18.85493 -54.82008 42.57901 0.02146 -0.02185 -64.94578 -36.68344 23.59374 
47.43468 97.22978 4.90267 2.52573 36.88907 128.80733 -25.50372 28.91933 8.63883 -0.08287 0.08496 0.01466 -23.14448 16.44946 16.68537 -0.31690 11.06048 3.15058 -53.85955 -36.60492 -31.71675 -15.41750 -23.13353 -69.82294 7.53183 8.66994 -8.88943 0.51318 11.60714 4.07418 69.37233 23.83576 76.68893 -3.77283 27.51253 94.12286 17.01631 11.33822 8.69390 50.33864 -32.83212 38.87923 -122.55560 56.78791 150.02686 -27.85201 0.08765 0.10977 -84.40022 69.18899 84.73711 -35.46436 4.67357 17.18151 33.62570 16.97897 -55.00230 37.94238 0.02799 -0.01542 -60.71328 -36.48017 23.31655 
47.79824 97.51897 4.87640 2.07379 35.17243 130.63780 -26.26529 28.18639 8.97083 -0.00008 0.00459 -0.00520 -21.02788 17.36566 16.42772 0.61568 10.77767 2.45662 -54.73691 -41.95530 -33.54854 -17.75713 -15.58107 -70.52202 12.43874 12.21492 -6.36398 2.16760 11.37594 2.70828 69.63789 22.38149 75.99622 -4.61164 27.53405 93.38641 13.62609 9.64873 18.54472 42.98903 -33.38165 40.32477 -130.16029 64.16978 155.77171 -25.19512 0.06777 0.14145 -51.32804 75.25801 44.01733 -33.99605 5.41331 16.44638 33.23722 15.04363 -55.03963 33.21292 0.03436 -0.00665 -56.17527 -36.12500 23.15754 
48.13749 97.76036 4.76272 1.65180 33.59810 132.36980 -27.00944 27.45820 9.23940 0.00546 0.00049 -0.00413 -18.96516 18.16422 16.15580 1.57925 10.49182 1.80447 -56.01973 -46.74331 -35.74271 -20.51747 -7.63700 -72.08004 14.45302 12.03000 -8.87279 3.72445 11.13027 1.38271 69.86842 20.83486 75.26152 -5.20139 27.48409 93.00421 13.24570 10.08178 18.03305 35.24905 -33.72676 41.18577 -142.00394 70.87411 166.84285 -21.62070 0.08890 0.16762 -12.19421 70.27298 -3.72136 -32.62899 6.19495 15.78761 32.61587 13.05099 -54.99228 28.37275 0.03833 0.00281 -51.39137 -35.63368 23.11414 
48.44125 97.91463 4.56099 1.25587 32.13193 134.02345 -27.70836 26.74529 9.44151 0.00545 0.00111 -0.00329 -17.03004 18.89589 15.90537 2.52527 10.25324 1.24320 -57.74139 -50.99953 -38.36843 -23.41361 0.56816 -74.23218 15.15198 10.22126 -13.47516 5.15524 10.92495 0.18960 70.06326 19.12776 74.49709 -5.54932 27.35326 92.93818 14.24688 12.02823 12.23163 27.31602 -33.71840 41.36164 -161.23439 76.57604 186.71481 -17.87212 0.09278 0.14188 0.48794 58.54647 -25.34533 -31.32709 6.98884 15.17987 31.83816 11.02103 -54.90578 23.42923 0.03997 0.01138 -46.42958 -35.03765 23.15581 
